<svg xmlns="http://www.w3.org/2000/svg" xmlns:xlink="http://www.w3.org/1999/xlink" width="256" zoomAndPan="magnify" viewBox="0 0 192 191.999996" height="256" preserveAspectRatio="xMidYMid meet" version="1.0"><defs><g/></defs><g fill="rgb(0%, 0%, 0%)" fill-opacity="1"><g transform="translate(8.182342, 161.95617)"><g><path d="M 12.039062 0.207031 L 20.136719 0.207031 L 21.382812 0 L 25.535156 0.207031 L 30.515625 -0.207031 L 31.96875 -0.414062 L 33.421875 -0.207031 L 35.5 -1.660156 L 36.328125 -4.359375 L 36.746094 -6.851562 L 37.367188 -9.34375 L 37.160156 -10.796875 L 37.367188 -12.25 L 37.367188 -13.492188 L 37.574219 -14.945312 L 38.820312 -17.4375 L 39.027344 -18.890625 L 39.445312 -21.382812 L 39.859375 -24.289062 L 39.859375 -25.535156 L 40.066406 -28.441406 L 40.480469 -29.894531 L 40.273438 -31.347656 L 41.105469 -34.046875 L 41.726562 -36.539062 L 42.351562 -39.652344 L 42.972656 -42.351562 L 42.765625 -43.597656 L 43.597656 -45.878906 L 43.804688 -46.917969 L 44.425781 -49.824219 L 44.839844 -52.523438 L 45.257812 -54.597656 L 45.878906 -57.921875 L 50.863281 -57.503906 L 55.636719 -57.921875 L 63.109375 -57.921875 L 65.394531 -57.710938 L 67.46875 -57.710938 L 68.714844 -60.203125 L 69.339844 -63.109375 L 70.167969 -65.808594 L 70.167969 -68.300781 L 70.792969 -71 L 71 -72.453125 L 71.207031 -73.699219 L 71.828125 -76.1875 L 71.828125 -77.226562 L 72.660156 -80.132812 L 72.660156 -81.792969 L 73.28125 -83.457031 L 73.492188 -85.117188 L 72.867188 -87.398438 L 69.960938 -87.605469 L 67.675781 -87.605469 L 64.769531 -87.398438 L 62.28125 -87.191406 L 53.144531 -87.398438 L 50.863281 -87.605469 L 51.484375 -89.683594 L 51.898438 -92.175781 L 51.898438 -93.628906 L 52.109375 -94.875 L 52.523438 -96.328125 L 52.523438 -97.988281 L 53.351562 -99.648438 L 54.183594 -104.628906 L 54.183594 -105.667969 L 54.804688 -108.574219 L 55.429688 -111.6875 L 55.636719 -113.140625 L 55.84375 -115.425781 L 56.257812 -117.085938 L 58.335938 -117.085938 L 66.847656 -117.292969 L 72.246094 -117.5 L 75.152344 -117.292969 L 79.09375 -116.878906 L 82.417969 -117.292969 L 84.285156 -117.085938 L 86.152344 -118.125 L 86.777344 -122.484375 L 87.605469 -126.21875 L 87.605469 -127.675781 L 87.816406 -128.917969 L 88.4375 -131.617188 L 89.058594 -135.148438 L 89.058594 -136.183594 L 89.476562 -138.882812 L 89.476562 -141.167969 L 89.890625 -142.621094 L 89.269531 -144.28125 L 86.570312 -145.113281 L 84.078125 -145.113281 L 80.757812 -145.320312 L 56.46875 -145.320312 L 51.070312 -145.527344 L 43.597656 -145.734375 L 33.421875 -145.320312 L 30.933594 -144.28125 L 30.515625 -141.789062 L 30.308594 -140.335938 L 30.515625 -137.847656 L 30.101562 -136.808594 L 29.6875 -134.109375 L 28.855469 -130.371094 L 28.855469 -128.710938 L 28.027344 -127.257812 L 27.820312 -124.976562 L 27.609375 -122.277344 L 27.402344 -120.617188 L 26.988281 -119.371094 L 26.363281 -116.671875 L 26.15625 -113.765625 L 25.535156 -112.519531 L 25.535156 -111.066406 L 24.496094 -107.746094 L 24.289062 -106.292969 L 24.289062 -104.835938 L 24.082031 -103.382812 L 24.289062 -102.140625 L 23.875 -99.441406 L 23.457031 -97.988281 L 23.042969 -95.082031 L 22.421875 -93.628906 L 22.003906 -90.722656 L 22.003906 -88.230469 L 21.382812 -85.738281 L 20.96875 -84.285156 L 20.136719 -81.792969 L 19.308594 -79.09375 L 19.097656 -76.398438 L 18.476562 -73.492188 L 18.476562 -72.039062 L 17.644531 -69.339844 L 16.816406 -63.527344 L 16.816406 -60.617188 L 16.191406 -59.164062 L 15.777344 -56.050781 L 15.984375 -54.597656 L 15.363281 -51.277344 L 14.324219 -48.371094 L 13.910156 -45.671875 L 13.910156 -42.765625 L 13.078125 -40.273438 L 13.078125 -38.820312 L 12.664062 -37.574219 L 12.664062 -35.914062 L 12.039062 -34.046875 L 11.832031 -31.140625 L 11.417969 -29.894531 L 11.417969 -28.027344 L 10.585938 -25.949219 L 9.757812 -23.042969 L 9.550781 -21.382812 L 9.34375 -18.683594 L 9.132812 -17.230469 L 8.925781 -15.984375 L 8.097656 -14.324219 L 7.679688 -12.039062 L 7.472656 -10.585938 L 7.265625 -9.34375 L 7.472656 -6.4375 L 6.644531 -4.773438 L 6.644531 -2.492188 L 7.472656 -0.414062 L 9.964844 0 Z M 12.039062 0.207031 "/></g></g></g><g fill="rgb(0%, 0%, 0%)" fill-opacity="1"><g transform="translate(83.956213, 161.95617)"><g><path d="M 32.386719 0.207031 L 35.5 0 L 36.121094 0 L 37.78125 -0.207031 L 40.691406 -0.207031 L 42.351562 0 L 45.050781 0.207031 L 50.65625 0 L 52.109375 -0.207031 L 53.5625 0 L 56.675781 0.207031 L 59.789062 -0.414062 L 61.035156 -0.207031 L 63.734375 -0.832031 L 65.601562 -1.039062 L 66.847656 -1.246094 L 68.507812 -1.867188 L 70.792969 -2.492188 L 72.453125 -3.320312 L 73.90625 -3.945312 L 74.945312 -4.566406 L 75.980469 -5.398438 L 77.433594 -6.226562 L 78.472656 -7.265625 L 79.71875 -7.890625 L 81.378906 -8.925781 L 82.210938 -9.964844 L 83.664062 -11.210938 L 84.699219 -12.25 L 85.945312 -14.53125 L 87.816406 -17.023438 L 91.136719 -23.667969 L 91.550781 -25.121094 L 91.964844 -26.363281 L 92.382812 -27.820312 L 92.796875 -29.0625 L 93.417969 -31.96875 L 93.628906 -33.421875 L 94.25 -36.121094 L 94.875 -39.238281 L 95.289062 -42.351562 L 95.496094 -43.804688 L 95.496094 -46.503906 L 95.703125 -48.371094 L 95.289062 -50.445312 L 95.496094 -53.144531 L 94.664062 -55.84375 L 94.25 -58.542969 L 93.628906 -59.789062 L 93.210938 -61.863281 L 92.175781 -64.148438 L 91.34375 -65.601562 L 90.097656 -67.675781 L 88.851562 -68.921875 L 87.605469 -70.375 L 85.117188 -72.039062 L 83.246094 -72.867188 L 80.964844 -74.113281 L 78.886719 -74.945312 L 78.886719 -76.1875 L 80.757812 -77.019531 L 83.246094 -78.058594 L 85.738281 -79.511719 L 87.191406 -80.339844 L 88.230469 -81.171875 L 89.269531 -82.417969 L 90.304688 -83.246094 L 93.003906 -85.945312 L 94.664062 -88.4375 L 96.117188 -90.511719 L 97.570312 -92.796875 L 98.402344 -94.664062 L 99.023438 -95.910156 L 99.441406 -97.363281 L 99.855469 -98.609375 L 100.0625 -100.0625 L 100.269531 -100.6875 L 100.6875 -102.140625 L 100.476562 -103.382812 L 101.308594 -106.082031 L 101.515625 -107.535156 L 101.929688 -110.234375 L 101.929688 -111.480469 L 102.347656 -112.933594 L 102.554688 -114.179688 L 102.554688 -115.632812 L 102.761719 -116.878906 L 102.96875 -119.992188 L 102.554688 -122.484375 L 102.140625 -124.144531 L 102.140625 -125.597656 L 101.929688 -127.257812 L 100.6875 -130.164062 L 99.855469 -132.65625 L 99.234375 -133.695312 L 98.402344 -134.941406 L 96.535156 -136.601562 L 93.835938 -139.507812 L 91.550781 -141.375 L 89.683594 -142.207031 L 87.605469 -143.242188 L 85.117188 -143.867188 L 82 -144.695312 L 79.925781 -144.90625 L 77.640625 -145.320312 L 71.414062 -145.320312 L 68.507812 -145.527344 L 60.203125 -145.320312 L 50.03125 -145.734375 L 45.671875 -145.734375 L 43.386719 -145.527344 L 42.144531 -145.734375 L 36.953125 -145.734375 L 34.046875 -145.527344 L 32.179688 -143.867188 L 31.554688 -142.828125 L 31.140625 -140.960938 L 30.933594 -137.847656 L 30.726562 -136.394531 L 30.726562 -134.730469 L 30.101562 -132.035156 L 28.855469 -127.050781 L 28.234375 -124.351562 L 27.609375 -121.238281 L 27.195312 -114.59375 L 26.363281 -111.6875 L 25.949219 -108.574219 L 25.742188 -107.328125 L 25.328125 -106.082031 L 25.328125 -104.628906 L 25.121094 -103.382812 L 24.910156 -101.515625 L 24.289062 -99.855469 L 24.082031 -98.609375 L 23.667969 -97.15625 L 23.457031 -94.664062 L 23.25 -92.796875 L 22.628906 -90.929688 L 22.214844 -89.476562 L 22.003906 -88.023438 L 22.003906 -86.363281 L 21.589844 -83.457031 L 20.761719 -80.546875 L 20.550781 -78.886719 L 19.722656 -76.1875 L 19.308594 -75.152344 L 19.097656 -72.246094 L 18.269531 -69.339844 L 17.855469 -67.261719 L 17.644531 -66.433594 L 17.644531 -65.1875 L 17.023438 -62.695312 L 16.816406 -61.242188 L 16.398438 -58.542969 L 15.777344 -55.84375 L 15.777344 -54.390625 L 15.570312 -53.144531 L 15.15625 -51.484375 L 14.53125 -49.824219 L 13.910156 -46.917969 L 14.117188 -44.839844 L 13.285156 -42.765625 L 12.871094 -39.445312 L 12.457031 -36.328125 L 12.25 -35.085938 L 11.625 -33.421875 L 11.417969 -31.761719 L 11.003906 -30.308594 L 10.796875 -28.855469 L 10.378906 -27.609375 L 10.171875 -24.703125 L 9.757812 -21.796875 L 8.925781 -19.097656 L 8.71875 -17.644531 L 8.304688 -15.15625 L 7.890625 -12.25 L 7.472656 -10.378906 L 6.851562 -8.71875 L 6.851562 -5.605469 L 6.4375 -3.527344 L 6.226562 -1.867188 L 7.679688 -0.621094 L 9.550781 -0.414062 L 12.664062 -0.207031 L 14.324219 -0.207031 L 15.570312 0 L 24.082031 0 L 27.402344 -0.207031 L 29.0625 -0.207031 Z M 55.84375 -90.097656 L 53.351562 -90.304688 L 50.65625 -90.304688 L 50.65625 -91.550781 L 50.863281 -93.628906 L 51.277344 -95.289062 L 52.730469 -105.460938 L 53.144531 -106.707031 L 53.351562 -108.160156 L 53.976562 -110.859375 L 53.976562 -112.3125 L 54.597656 -114.800781 L 54.804688 -116.253906 L 55.015625 -118.125 L 55.636719 -119.992188 L 55.636719 -121.445312 L 57.296875 -121.859375 L 62.488281 -121.859375 L 66.222656 -121.445312 L 68.09375 -121.03125 L 69.339844 -120.824219 L 71 -119.371094 L 71.621094 -118.332031 L 72.867188 -115.839844 L 73.074219 -113.347656 L 73.28125 -111.894531 L 73.492188 -109.613281 L 72.660156 -107.535156 L 72.453125 -105.875 L 72.039062 -104.628906 L 71.414062 -102.140625 L 70.375 -99.234375 L 68.714844 -97.15625 L 67.675781 -95.289062 L 65.1875 -93.210938 L 62.902344 -91.757812 L 61.242188 -90.722656 L 58.75 -90.304688 Z M 42.558594 -26.574219 L 39.238281 -26.78125 L 40.066406 -29.480469 L 40.273438 -31.140625 L 40.691406 -32.800781 L 41.105469 -35.707031 L 41.105469 -37.160156 L 41.726562 -40.273438 L 42.144531 -41.726562 L 42.558594 -44.632812 L 42.765625 -46.292969 L 43.179688 -47.539062 L 43.179688 -48.992188 L 43.597656 -50.445312 L 44.011719 -53.5625 L 44.425781 -54.390625 L 44.839844 -56.050781 L 45.257812 -59.789062 L 45.878906 -61.65625 L 48.785156 -61.65625 L 51.070312 -61.449219 L 53.976562 -61.449219 L 55.636719 -61.035156 L 57.710938 -60.617188 L 61.65625 -59.164062 L 63.941406 -57.089844 L 65.808594 -52.109375 L 65.601562 -49.410156 L 65.808594 -45.878906 L 65.394531 -42.144531 L 64.355469 -39.445312 L 64.148438 -37.78125 L 63.734375 -36.328125 L 62.695312 -34.046875 L 62.488281 -32.386719 L 61.242188 -30.515625 L 59.789062 -29.273438 L 57.921875 -27.820312 L 56.46875 -27.195312 L 55.015625 -27.195312 L 53.5625 -26.574219 L 49.617188 -26.574219 L 44.425781 -27.195312 Z M 42.558594 -26.574219 "/></g></g></g></svg>